<svg width="24" height="24" viewBox="0 0 24 24" fill="none" xmlns="http://www.w3.org/2000/svg">
<g clip-path="url(#clip0)">
<path d="M23.7904 11.3395C21.0563 7.99777 17.0056 6.07372 12.7525 5.87119H11.5373L9.51197 6.07372C8.90437 6.17498 8.19551 6.37751 7.58792 6.58005C6.98032 6.78258 6.27146 7.08637 5.66387 7.28891C5.05627 7.5927 4.44868 7.8965 3.84108 8.30157C3.43602 8.60536 2.52463 9.31422 2.11956 9.61802C1.51197 10.1243 1.00564 10.7319 0.49931 11.2383L-0.00701904 11.9471C0.296778 12.5547 0.701842 13.0611 1.20817 13.5674C1.61323 12.9598 2.11956 12.4535 2.62589 11.9471L2.72716 11.8459L3.73982 15.3902C4.54994 15.8965 5.36007 16.4028 6.1702 16.7066L4.44868 10.4281C5.05627 10.0231 5.66387 9.61802 6.27146 9.31422L8.49931 17.618C9.20817 17.8206 9.91703 17.9218 10.7272 18.0231L8.09425 8.5041C8.70184 8.30156 9.4107 8.2003 10.0183 7.99777L12.6512 17.9218L14.6765 17.7193C18.2208 17.1117 21.3601 15.2889 23.6892 12.5547C24.0942 12.2509 24.0942 11.6433 23.7904 11.3395V11.3395ZM16.1955 11.9471C16.1955 13.3649 15.3854 14.6813 14.1702 15.3902L13.7651 13.8712C14.3727 13.3649 14.6765 12.656 14.6765 11.9471C14.6765 10.7319 13.7651 9.61802 12.5499 9.41549L12.1449 7.8965C14.3727 7.8965 16.1955 9.71929 16.1955 11.9471V11.9471ZM17.512 14.8838C18.5246 13.0611 18.5246 10.8332 17.512 9.11169C19.031 9.82055 20.4487 10.8332 21.6639 12.0484C20.4487 13.1623 19.031 14.175 17.512 14.8838Z" fill="#010101"/>
<path fill-rule="evenodd" clip-rule="evenodd" d="M8.37988 2L13.7389 22H16.0682L10.7093 2H8.37988Z" fill="black"/>
</g>
<defs>
<clipPath id="clip0">
<rect width="24" height="24" fill="white"/>
</clipPath>
</defs>
</svg>
