<svg width="112" height="30" viewBox="0 0 112 30" fill="none" xmlns="http://www.w3.org/2000/svg">
<path d="M66.1679 0H36.168C27.8837 0 21.168 6.71573 21.168 15C21.168 23.2843 27.8837 30 36.168 30H66.1679C74.4522 30 81.1679 23.2843 81.1679 15C81.1679 6.71573 74.4522 0 66.1679 0Z" fill="black"/>
<path d="M51.1667 21.6666C49.8481 21.6666 48.5592 21.2756 47.4629 20.5431C46.3665 19.8105 45.5121 18.7693 45.0075 17.5511C44.5029 16.333 44.3709 14.9925 44.6281 13.6993C44.8853 12.4061 45.5203 11.2182 46.4526 10.2859C47.385 9.35353 48.5729 8.71859 49.8661 8.46135C51.1593 8.20412 52.4997 8.33614 53.7179 8.84072C54.936 9.34531 55.9772 10.1998 56.7098 11.2961C57.4423 12.3924 57.8333 13.6814 57.8333 14.9999C57.8313 16.7674 57.1283 18.462 55.8785 19.7118C54.6287 20.9616 52.9342 21.6646 51.1667 21.6666ZM51.1667 10.8333C50.3426 10.8333 49.537 11.0776 48.8518 11.5355C48.1666 11.9933 47.6325 12.644 47.3172 13.4054C47.0018 14.1668 46.9193 15.0045 47.0801 15.8128C47.2408 16.6211 47.6377 17.3635 48.2204 17.9462C48.8031 18.5289 49.5455 18.9258 50.3538 19.0865C51.162 19.2473 51.9998 19.1648 52.7612 18.8494C53.5225 18.5341 54.1733 18 54.6311 17.3148C55.0889 16.6296 55.3333 15.824 55.3333 14.9999C55.332 13.8953 54.8926 12.8362 54.1115 12.0551C53.3304 11.274 52.2713 10.8346 51.1667 10.8333Z" fill="white"/>
<path d="M91.0846 21.6666C89.3171 21.6646 87.6226 20.9616 86.3728 19.7118C85.123 18.462 84.42 16.7674 84.418 14.9999V9.58325C84.418 9.25173 84.5497 8.93379 84.7841 8.69937C85.0185 8.46495 85.3364 8.33325 85.668 8.33325C85.9995 8.33325 86.3174 8.46495 86.5518 8.69937C86.7863 8.93379 86.918 9.25173 86.918 9.58325V14.9999C86.918 16.105 87.357 17.1648 88.1384 17.9462C88.9198 18.7276 89.9796 19.1666 91.0846 19.1666C92.1897 19.1666 93.2495 18.7276 94.0309 17.9462C94.8123 17.1648 95.2513 16.105 95.2513 14.9999V9.58325C95.2513 9.25173 95.383 8.93379 95.6174 8.69937C95.8518 8.46495 96.1698 8.33325 96.5013 8.33325C96.8328 8.33325 97.1508 8.46495 97.3852 8.69937C97.6196 8.93379 97.7513 9.25173 97.7513 9.58325V14.9999C97.7493 16.7674 97.0463 18.462 95.7965 19.7118C94.5467 20.9616 92.8521 21.6646 91.0846 21.6666Z" fill="black"/>
<path d="M65.4175 21.6667C65.182 21.6666 64.9513 21.6 64.7519 21.4746C64.5526 21.3491 64.3928 21.1699 64.2909 20.9575L59.2908 10.5408C59.1653 10.2451 59.1584 9.91233 59.2716 9.61163C59.3849 9.31094 59.6096 9.06541 59.8991 8.92602C60.1887 8.78663 60.5207 8.76407 60.8264 8.86304C61.1321 8.96201 61.388 9.1749 61.5408 9.45751L65.4175 17.5283L69.2909 9.45918C69.357 9.30352 69.454 9.16289 69.576 9.0458C69.698 8.92872 69.8425 8.83761 70.0008 8.77799C70.159 8.71838 70.3278 8.6915 70.4967 8.69898C70.6657 8.70645 70.8313 8.74814 70.9837 8.8215C71.1361 8.89487 71.272 8.99839 71.3832 9.1258C71.4944 9.25321 71.5786 9.40186 71.6307 9.56275C71.6827 9.72364 71.7017 9.89343 71.6862 10.0618C71.6708 10.2302 71.6213 10.3938 71.5409 10.5425L66.5409 20.9592C66.439 21.1707 66.2796 21.3493 66.0809 21.4744C65.8822 21.5995 65.6523 21.6662 65.4175 21.6667Z" fill="white"/>
<path d="M110.153 21.6667C109.917 21.667 109.686 21.6005 109.487 21.4751C109.287 21.3496 109.127 21.1702 109.025 20.9576L105.152 12.8884L101.279 20.9576C101.126 21.2402 100.87 21.4531 100.565 21.552C100.259 21.651 99.9269 21.6285 99.6374 21.4891C99.3479 21.3497 99.1232 21.1041 99.0099 20.8034C98.8967 20.5028 98.9035 20.17 99.0291 19.8742L104.029 9.45758C104.131 9.24624 104.291 9.06801 104.49 8.9433C104.689 8.81859 104.919 8.75244 105.154 8.75244C105.389 8.75244 105.619 8.81859 105.818 8.9433C106.017 9.06801 106.177 9.24624 106.279 9.45758L111.279 19.8742C111.371 20.0648 111.413 20.2755 111.401 20.4866C111.389 20.6978 111.324 20.9025 111.212 21.0816C111.099 21.2607 110.943 21.4083 110.758 21.5106C110.573 21.613 110.365 21.6667 110.153 21.6667Z" fill="black"/>
<path d="M35.9985 21.6666C34.9021 21.6666 33.8228 21.3961 32.8559 20.8793C31.889 20.3625 31.0646 19.6152 30.4555 18.7036C29.8464 17.792 29.4716 16.7443 29.3641 15.6533C29.2567 14.5622 29.42 13.4615 29.8395 12.4487C30.2591 11.4358 30.9219 10.542 31.7694 9.84653C32.6169 9.15102 33.6228 8.67526 34.698 8.46136C35.7733 8.24747 36.8847 8.30206 37.9338 8.62028C38.983 8.93851 39.9374 9.51056 40.7126 10.2858C40.832 10.4011 40.9273 10.539 40.9928 10.6915C41.0583 10.844 41.0928 11.008 41.0942 11.174C41.0957 11.34 41.064 11.5046 41.0012 11.6582C40.9383 11.8118 40.8455 11.9514 40.7281 12.0687C40.6108 12.1861 40.4712 12.2789 40.3176 12.3418C40.164 12.4046 39.9994 12.4363 39.8334 12.4348C39.6674 12.4334 39.5034 12.3989 39.3509 12.3334C39.1984 12.2679 39.0605 12.1726 38.9451 12.0533C38.302 11.4101 37.466 10.9951 36.5649 10.8715C35.6638 10.7479 34.747 10.9226 33.9544 11.3689C33.1619 11.8152 32.5371 12.5085 32.1756 13.3431C31.814 14.1778 31.7354 15.1077 31.9519 15.9912C32.1684 16.8746 32.668 17.6629 33.3744 18.2358C34.0809 18.8087 34.9554 19.1347 35.8645 19.164C36.7736 19.1933 37.6673 18.9244 38.4092 18.3982C39.1512 17.8721 39.7005 17.1176 39.9735 16.2499H35.9985C35.667 16.2499 35.349 16.1182 35.1146 15.8838C34.8802 15.6494 34.7485 15.3314 34.7485 14.9999C34.7485 14.6684 34.8802 14.3505 35.1146 14.116C35.349 13.8816 35.667 13.7499 35.9985 13.7499H41.4152C41.7467 13.7499 42.0646 13.8816 42.299 14.116C42.5335 14.3505 42.6652 14.6684 42.6652 14.9999C42.6632 16.7674 41.9602 18.462 40.7103 19.7118C39.4605 20.9616 37.766 21.6646 35.9985 21.6666Z" fill="white"/>
<path d="M11.7487 8.33325H6.33203C6.00051 8.33325 5.68257 8.46495 5.44815 8.69937C5.21373 8.93379 5.08203 9.25173 5.08203 9.58325V20.4166C5.08203 20.7481 5.21373 21.0661 5.44815 21.3005C5.68257 21.5349 6.00051 21.6666 6.33203 21.6666H11.7487C13.5168 21.6666 15.2125 20.9642 16.4627 19.714C17.713 18.4637 18.4154 16.768 18.4154 14.9999C18.4154 13.2318 17.713 11.5361 16.4627 10.2859C15.2125 9.03563 13.5168 8.33325 11.7487 8.33325ZM11.7487 19.1666H7.58203V10.8333H11.7487C12.8538 10.8333 13.9136 11.2722 14.695 12.0536C15.4764 12.835 15.9154 13.8949 15.9154 14.9999C15.9154 16.105 15.4764 17.1648 14.695 17.9462C13.9136 18.7276 12.8538 19.1666 11.7487 19.1666Z" fill="black"/>
<path d="M1.25 8.33325C0.918479 8.33325 0.600537 8.46495 0.366117 8.69937C0.131696 8.93379 0 9.25173 0 9.58325L0 20.4166C0 20.7481 0.131696 21.0661 0.366117 21.3005C0.600537 21.5349 0.918479 21.6666 1.25 21.6666C1.58152 21.6666 1.89946 21.5349 2.13388 21.3005C2.3683 21.0661 2.5 20.7481 2.5 20.4166V9.58325C2.5 9.25173 2.3683 8.93379 2.13388 8.69937C1.89946 8.46495 1.58152 8.33325 1.25 8.33325Z" fill="black"/>
</svg>
