<svg width="273" height="60" viewBox="0 0 273 60" fill="none" xmlns="http://www.w3.org/2000/svg">
<path d="M85.9242 4.02681H83.2955L80.1465 12.3493L76.9702 4.02681H74.3141V14.3619H75.9844V5.98503L79.1608 14.3619H81.0775L84.2539 5.98503V14.3619H85.9242V4.02681Z" fill="black"/>
<path d="M88.8267 5.06032H90.6339V3.42847H88.8267V5.06032ZM88.9088 14.3619H90.5518V6.20261H88.9088V14.3619Z" fill="black"/>
<path d="M98.9034 6.20261V9.46632H94.9056V6.20261H93.2626V14.3619H94.9056V10.935H98.9034V14.3619H100.546V6.20261H98.9034Z" fill="black"/>
<path d="M103.175 5.06032H104.982V3.42847H103.175V5.06032ZM103.257 14.3619H104.9V6.20261H103.257V14.3619Z" fill="black"/>
<path d="M111.116 14.4979C112.868 14.4979 114.32 13.6003 114.785 12.0501L113.224 11.5605C112.868 12.5124 112.102 13.1108 111.116 13.1108C109.61 13.1108 108.679 11.9957 108.679 10.2822C108.679 8.5688 109.61 7.4537 111.116 7.4537C112.129 7.4537 112.868 8.05205 113.224 9.00396L114.785 8.5144C114.32 6.96414 112.896 6.06663 111.116 6.06663C108.679 6.06663 107.009 7.78007 107.009 10.2822C107.009 12.7844 108.679 14.4979 111.116 14.4979Z" fill="black"/>
<path d="M122.918 6.20261H115.36V7.64408H118.317V14.3619H119.96V7.64408H122.918V6.20261Z" fill="black"/>
<path d="M125.108 10.799H131.433C131.488 10.6086 131.488 10.4726 131.488 10.2822C131.488 7.72567 129.927 6.06663 127.518 6.06663C125.108 6.06663 123.465 7.78007 123.465 10.2822C123.465 12.7028 124.944 14.4979 127.655 14.4979C129.38 14.4979 130.53 13.8451 131.214 13.0292L130.092 12.0501C129.626 12.6484 128.86 13.1108 127.655 13.1108C126.203 13.1108 125.3 12.2133 125.108 10.799ZM127.518 7.4265C128.75 7.4265 129.599 8.21523 129.818 9.54791H125.136C125.382 8.24243 126.231 7.4265 127.518 7.4265Z" fill="black"/>
<path d="M137.759 6.06663C136.581 6.06663 135.596 6.58338 134.938 7.4809L134.829 6.20261H133.405V17.0816H135.048V13.274C135.678 14.0627 136.636 14.4979 137.759 14.4979C139.867 14.4979 141.346 12.7844 141.346 10.2822C141.346 7.72567 139.922 6.06663 137.759 6.06663ZM137.321 13.1108C135.869 13.1108 134.938 11.9957 134.938 10.2822C134.938 8.5688 135.869 7.4537 137.321 7.4537C138.772 7.4537 139.676 8.5688 139.676 10.2822C139.676 11.9957 138.772 13.1108 137.321 13.1108Z" fill="black"/>
<path d="M146.822 14.4979C148.575 14.4979 150.026 13.6003 150.492 12.0501L148.931 11.5605C148.575 12.5124 147.808 13.1108 146.822 13.1108C145.316 13.1108 144.385 11.9957 144.385 10.2822C144.385 8.5688 145.316 7.4537 146.822 7.4537C147.835 7.4537 148.575 8.05205 148.931 9.00396L150.492 8.5144C150.026 6.96414 148.602 6.06663 146.822 6.06663C144.385 6.06663 142.715 7.78007 142.715 10.2822C142.715 12.7844 144.385 14.4979 146.822 14.4979Z" fill="black"/>
<path d="M158.624 6.20261H151.067V7.64408H154.024V14.3619H155.667V7.64408H158.624V6.20261Z" fill="black"/>
<path d="M165.607 10.1735C166.346 9.84708 166.784 9.22154 166.784 8.32402C166.784 6.85535 165.661 6.20261 163.854 6.20261H160.185V14.3619H164.155C165.935 14.3619 167.003 13.6003 167.003 12.1317C167.003 11.1526 166.51 10.4998 165.607 10.1735ZM161.773 7.50809H163.936C164.703 7.50809 165.168 7.86166 165.168 8.5144C165.168 9.27593 164.785 9.57511 163.854 9.57511H161.773V7.50809ZM163.991 13.0564H161.773V10.799H163.881C164.812 10.799 165.36 11.2342 165.36 11.9413C165.36 12.6484 164.867 13.0564 163.991 13.0564Z" fill="black"/>
<path d="M172.534 14.4979C174.999 14.4979 176.696 12.7844 176.696 10.2822C176.696 7.72567 175.053 6.06663 172.534 6.06663C170.07 6.06663 168.372 7.78007 168.372 10.2822C168.372 12.8388 170.015 14.4979 172.534 14.4979ZM172.534 13.1108C171.028 13.1108 170.042 11.9957 170.042 10.2822C170.042 8.5688 171.028 7.4537 172.534 7.4537C174.04 7.4537 175.026 8.5688 175.026 10.2822C175.026 11.9957 174.04 13.1108 172.534 13.1108Z" fill="black"/>
<path d="M81.2144 33.8081V27.0903H79.5715V33.8081H75.6832V27.0903H74.0403V35.2496H80.7216V37.1534H82.2823V33.8081H81.2144Z" fill="black"/>
<path d="M89.7029 27.0903L85.7051 32.965V27.0903H84.0896V35.2496H85.7873L89.7851 29.3205V35.2496H91.4006V27.0903H89.7029Z" fill="black"/>
<path d="M102.901 27.0087C101.943 27.0087 101.121 27.3895 100.574 28.1238V24.3706H98.9308V28.0694C98.3831 27.3623 97.589 27.0087 96.6306 27.0087C94.7139 27.0087 93.3722 28.6678 93.3722 31.1699C93.3722 33.6993 94.6591 35.3312 96.6306 35.3312C97.589 35.3312 98.3831 34.9504 98.9308 34.2161V37.9693H100.574V34.2433C101.121 34.9504 101.915 35.3312 102.901 35.3312C104.791 35.3312 106.16 33.6721 106.16 31.1699C106.16 28.6406 104.873 27.0087 102.901 27.0087ZM97.0414 33.9985C95.8092 33.9985 95.0425 32.8834 95.0425 31.1699C95.0425 29.4565 95.8092 28.3414 97.0414 28.3414C98.2462 28.3414 99.0129 29.4565 99.0129 31.1699C99.0129 32.8834 98.2462 33.9985 97.0414 33.9985ZM102.49 33.9985C101.258 33.9985 100.492 32.8834 100.492 31.1699C100.492 29.4565 101.258 28.3414 102.49 28.3414C103.695 28.3414 104.489 29.4565 104.489 31.1699C104.489 32.8834 103.695 33.9985 102.49 33.9985Z" fill="black"/>
<path d="M112.458 26.9543C111.28 26.9543 110.294 27.4711 109.637 28.3686L109.528 27.0903H108.104V37.9693H109.747V34.1617C110.377 34.9504 111.335 35.3856 112.458 35.3856C114.566 35.3856 116.045 33.6721 116.045 31.1699C116.045 28.6134 114.621 26.9543 112.458 26.9543ZM112.019 33.9985C110.568 33.9985 109.637 32.8834 109.637 31.1699C109.637 29.4565 110.568 28.3414 112.019 28.3414C113.471 28.3414 114.374 29.4565 114.374 31.1699C114.374 32.8834 113.471 33.9985 112.019 33.9985Z" fill="black"/>
<path d="M121.576 35.3856C124.04 35.3856 125.738 33.6721 125.738 31.1699C125.738 28.6134 124.095 26.9543 121.576 26.9543C119.111 26.9543 117.414 28.6678 117.414 31.1699C117.414 33.7265 119.057 35.3856 121.576 35.3856ZM121.576 33.9985C120.07 33.9985 119.084 32.8834 119.084 31.1699C119.084 29.4565 120.07 28.3414 121.576 28.3414C123.082 28.3414 124.068 29.4565 124.068 31.1699C124.068 32.8834 123.082 33.9985 121.576 33.9985Z" fill="black"/>
<path d="M133.131 31.0611C133.871 30.7348 134.309 30.1092 134.309 29.2117C134.309 27.743 133.186 27.0903 131.379 27.0903H127.71V35.2496H131.68C133.46 35.2496 134.528 34.488 134.528 33.0194C134.528 32.0403 134.035 31.3875 133.131 31.0611ZM129.298 28.3958H131.461C132.228 28.3958 132.693 28.7494 132.693 29.4021C132.693 30.1636 132.31 30.4628 131.379 30.4628H129.298V28.3958ZM131.516 33.9441H129.298V31.6867H131.406C132.337 31.6867 132.885 32.1218 132.885 32.829C132.885 33.5361 132.392 33.9441 131.516 33.9441Z" fill="black"/>
<path d="M140.059 35.3856C142.523 35.3856 144.221 33.6721 144.221 31.1699C144.221 28.6134 142.578 26.9543 140.059 26.9543C137.595 26.9543 135.897 28.6678 135.897 31.1699C135.897 33.7265 137.54 35.3856 140.059 35.3856ZM140.059 33.9985C138.553 33.9985 137.567 32.8834 137.567 31.1699C137.567 29.4565 138.553 28.3414 140.059 28.3414C141.565 28.3414 142.551 29.4565 142.551 31.1699C142.551 32.8834 141.565 33.9985 140.059 33.9985Z" fill="black"/>
<path d="M144.851 25.948H146.631V24.3162H144.851V25.948ZM147.671 25.948H149.451V24.3162H147.671V25.948ZM146.329 35.2496H147.972V27.0903H146.329V35.2496Z" fill="black"/>
<path d="M161.609 27.0903H154.051V28.5318H157.009V35.2496H158.651V28.5318H161.609V27.0903Z" fill="black"/>
<path d="M167.523 26.9543C166.346 26.9543 165.36 27.4711 164.703 28.3686L164.593 27.0903H163.17V37.9693H164.812V34.1617C165.442 34.9504 166.401 35.3856 167.523 35.3856C169.632 35.3856 171.11 33.6721 171.11 31.1699C171.11 28.6134 169.687 26.9543 167.523 26.9543ZM167.085 33.9985C165.634 33.9985 164.703 32.8834 164.703 31.1699C164.703 29.4565 165.634 28.3414 167.085 28.3414C168.536 28.3414 169.44 29.4565 169.44 31.1699C169.44 32.8834 168.536 33.9985 167.085 33.9985Z" fill="black"/>
<path d="M179.599 33.8353C179.243 33.8353 179.079 33.6721 179.079 33.3185V29.6469C179.079 27.9606 177.874 26.9543 175.902 26.9543C174.478 26.9543 173.301 27.4439 172.343 28.3414L173.356 29.4021C174.013 28.7222 174.889 28.3142 175.82 28.3142C176.861 28.3142 177.545 28.7494 177.545 29.4021C177.545 30.0276 176.943 30.1364 175.711 30.2996C174.122 30.5444 172.178 30.9796 172.178 32.9922C172.178 34.4064 173.246 35.3856 174.862 35.3856C176.067 35.3856 177.162 34.8416 177.737 33.9985C177.846 34.9504 178.312 35.304 179.325 35.304C179.599 35.304 179.818 35.2768 179.9 35.2496V33.8353H179.599ZM175.136 34.0529C174.287 34.0529 173.794 33.6449 173.794 32.8834C173.794 31.8227 174.862 31.6595 175.902 31.4963C176.696 31.3603 177.189 31.2787 177.49 31.0883V32.149C177.49 33.1826 176.395 34.0529 175.136 34.0529Z" fill="black"/>
<path d="M187.375 27.0903V30.354H183.378V27.0903H181.735V35.2496H183.378V31.8227H187.375V35.2496H189.018V27.0903H187.375Z" fill="black"/>
<path d="M195.097 35.3856C196.85 35.3856 198.301 34.488 198.766 32.9378L197.206 32.4482C196.85 33.4001 196.083 33.9985 195.097 33.9985C193.591 33.9985 192.66 32.8834 192.66 31.1699C192.66 29.4565 193.591 28.3414 195.097 28.3414C196.11 28.3414 196.85 28.9397 197.206 29.8917L198.766 29.4021C198.301 27.8518 196.877 26.9543 195.097 26.9543C192.66 26.9543 190.99 28.6678 190.99 31.1699C190.99 33.6721 192.66 35.3856 195.097 35.3856Z" fill="black"/>
<path d="M209.309 27.0087C208.35 27.0087 207.529 27.3895 206.981 28.1238V24.3706H205.338V28.0694C204.791 27.3623 203.996 27.0087 203.038 27.0087C201.121 27.0087 199.78 28.6678 199.78 31.1699C199.78 33.6993 201.067 35.3312 203.038 35.3312C203.996 35.3312 204.791 34.9504 205.338 34.2161V37.9693H206.981V34.2433C207.529 34.9504 208.323 35.3312 209.309 35.3312C211.198 35.3312 212.567 33.6721 212.567 31.1699C212.567 28.6406 211.28 27.0087 209.309 27.0087ZM203.449 33.9985C202.217 33.9985 201.45 32.8834 201.45 31.1699C201.45 29.4565 202.217 28.3414 203.449 28.3414C204.654 28.3414 205.42 29.4565 205.42 31.1699C205.42 32.8834 204.654 33.9985 203.449 33.9985ZM208.898 33.9985C207.666 33.9985 206.899 32.8834 206.899 31.1699C206.899 29.4565 207.666 28.3414 208.898 28.3414C210.103 28.3414 210.897 29.4565 210.897 31.1699C210.897 32.8834 210.103 33.9985 208.898 33.9985Z" fill="black"/>
<path d="M218.071 35.3856C220.535 35.3856 222.233 33.6721 222.233 31.1699C222.233 28.6134 220.59 26.9543 218.071 26.9543C215.607 26.9543 213.909 28.6678 213.909 31.1699C213.909 33.7265 215.552 35.3856 218.071 35.3856ZM218.071 33.9985C216.565 33.9985 215.579 32.8834 215.579 31.1699C215.579 29.4565 216.565 28.3414 218.071 28.3414C219.577 28.3414 220.563 29.4565 220.563 31.1699C220.563 32.8834 219.577 33.9985 218.071 33.9985Z" fill="black"/>
<path d="M228.558 26.9543C227.381 26.9543 226.395 27.4711 225.738 28.3686L225.628 27.0903H224.205V37.9693H225.848V34.1617C226.477 34.9504 227.436 35.3856 228.558 35.3856C230.667 35.3856 232.145 33.6721 232.145 31.1699C232.145 28.6134 230.722 26.9543 228.558 26.9543ZM228.12 33.9985C226.669 33.9985 225.738 32.8834 225.738 31.1699C225.738 29.4565 226.669 28.3414 228.12 28.3414C229.572 28.3414 230.475 29.4565 230.475 31.1699C230.475 32.8834 229.572 33.9985 228.12 33.9985Z" fill="black"/>
<path d="M243.81 27.0903H241.318L238.991 33.4273L236.636 27.0903H234.117V35.2496H235.705V28.8038L238.087 35.2496H239.84L242.222 28.8038V35.2496H243.81V27.0903Z" fill="black"/>
<path d="M253.065 33.8353C252.71 33.8353 252.545 33.6721 252.545 33.3185V29.6469C252.545 27.9606 251.34 26.9543 249.369 26.9543C247.945 26.9543 246.768 27.4439 245.809 28.3414L246.822 29.4021C247.48 28.7222 248.356 28.3142 249.287 28.3142C250.327 28.3142 251.012 28.7494 251.012 29.4021C251.012 30.0276 250.409 30.1364 249.177 30.2996C247.589 30.5444 245.645 30.9796 245.645 32.9922C245.645 34.4064 246.713 35.3856 248.328 35.3856C249.533 35.3856 250.628 34.8416 251.204 33.9985C251.313 34.9504 251.779 35.304 252.792 35.304C253.065 35.304 253.285 35.2768 253.367 35.2496V33.8353H253.065ZM248.602 34.0529C247.753 34.0529 247.26 33.6449 247.26 32.8834C247.26 31.8227 248.328 31.6595 249.369 31.4963C250.163 31.3603 250.656 31.2787 250.957 31.0883V32.149C250.957 33.1826 249.862 34.0529 248.602 34.0529Z" fill="black"/>
<path d="M262.375 33.8081V27.0903H260.733V33.8081H256.844V27.0903H255.201V35.2496H261.883V37.1534H263.443V33.8081H262.375Z" fill="black"/>
<path d="M265.305 25.948H267.113V24.3162H265.305V25.948ZM265.388 35.2496H267.03V27.0903H265.388V35.2496Z" fill="black"/>
<path d="M268.4 25.948H270.179V24.3162H268.4V25.948ZM271.22 25.948H273V24.3162H271.22V25.948ZM269.878 35.2496H271.521V27.0903H269.878V35.2496Z" fill="black"/>
<path d="M80.9132 45.8022L78.8869 51.6497H78.0381L74.9439 45.8022H72.9998L76.2582 51.6497H75.1356C74.4784 52.1392 74.1224 52.9008 74.1224 53.7711C74.1224 55.2669 75.163 56.2732 76.7237 56.2732C78.175 56.2732 79.2155 55.3757 79.8453 53.6623L82.7478 45.8022H80.9132ZM76.7785 54.8318C76.1213 54.8318 75.7106 54.3966 75.7106 53.7439C75.7106 53.4447 75.8201 53.1727 76.0118 52.9552H78.4214L78.2024 53.5807C77.8738 54.4238 77.4631 54.8318 76.7785 54.8318Z" fill="black"/>
<path d="M91.3459 54.6958C91.0994 54.6958 90.9351 54.5326 90.9351 54.2878V51.2961H89.4291L91.5102 47.978H89.7577L87.8136 51.2145H86.1432V45.2583H84.5003V56.1373H86.1432V52.7104H89.3196V54.6414C89.3196 55.6205 89.8946 56.1373 90.9078 56.1373H91.6471V54.6958H91.3459Z" fill="black"/>
<path d="M97.9176 47.842C96.7402 47.842 95.7544 48.3588 95.0972 49.2563L94.9877 47.978H93.5638V58.857H95.2068V55.0494C95.8366 55.8381 96.7949 56.2732 97.9176 56.2732C100.026 56.2732 101.505 54.5598 101.505 52.0576C101.505 49.5011 100.081 47.842 97.9176 47.842ZM97.4795 54.8862C96.0282 54.8862 95.0972 53.7711 95.0972 52.0576C95.0972 50.3442 96.0282 49.2291 97.4795 49.2291C98.9308 49.2291 99.8344 50.3442 99.8344 52.0576C99.8344 53.7711 98.9308 54.8862 97.4795 54.8862Z" fill="black"/>
<path d="M109.993 54.723C109.637 54.723 109.473 54.5598 109.473 54.2062V50.5346C109.473 48.8483 108.268 47.842 106.297 47.842C104.873 47.842 103.695 48.3316 102.737 49.2291L103.75 50.2898C104.407 49.6099 105.283 49.2019 106.214 49.2019C107.255 49.2019 107.94 49.6371 107.94 50.2898C107.94 50.9153 107.337 51.0241 106.105 51.1873C104.517 51.4321 102.573 51.8673 102.573 53.8799C102.573 55.2941 103.641 56.2732 105.256 56.2732C106.461 56.2732 107.556 55.7293 108.131 54.8862C108.241 55.8381 108.706 56.1917 109.719 56.1917C109.993 56.1917 110.212 56.1645 110.294 56.1373V54.723H109.993ZM105.53 54.9406C104.681 54.9406 104.188 54.5326 104.188 53.7711C104.188 52.7104 105.256 52.5472 106.297 52.384C107.091 52.248 107.584 52.1664 107.885 51.976V53.0367C107.885 54.0702 106.789 54.9406 105.53 54.9406Z" fill="black"/>
<path d="M110.787 46.8357H112.567V45.2039H110.787V46.8357ZM113.608 46.8357H115.387V45.2039H113.608V46.8357ZM112.266 56.1373H113.909V47.978H112.266V56.1373Z" fill="black"/>
<path d="M122.26 47.978V51.2417H118.263V47.978H116.62V56.1373H118.263V52.7104H122.26V56.1373H123.903V47.978H122.26Z" fill="black"/>
<path d="M132.091 47.978L128.093 53.8527V47.978H126.477V56.1373H128.175L132.173 50.2082V56.1373H133.788V47.978H132.091Z" fill="black"/>
<path fill-rule="evenodd" clip-rule="evenodd" d="M5.48398 5.48237L5.48237 5.48398C3.30093 7.66045 2.16541 10.4455 1.5864 14.3891C1.00244 18.3664 1 23.3949 1 29.9946C1 36.5942 1.00244 41.6227 1.58641 45.6014C2.16542 49.5463 3.30102 52.3347 5.48317 54.5168L5.48398 54.5176C7.66045 56.6991 10.4455 57.8346 14.3891 58.4136C18.3664 58.9976 23.3949 59 29.9946 59C36.5942 59 41.6227 58.9976 45.6014 58.4136C49.5463 57.8346 52.3347 56.699 54.5168 54.5168C56.6991 52.3345 57.8346 49.5487 58.4136 45.6054C58.9976 41.6281 59 36.5997 59 29.9946C59 23.3894 58.9976 18.361 58.4136 14.3837C57.8346 10.4404 56.6991 7.6546 54.5168 5.47229C52.3347 3.29558 49.549 2.16273 45.6057 1.58509C41.6283 1.00243 36.5996 1 29.9946 1C23.3894 1 18.361 1.00245 14.3851 1.58639C10.4431 2.16536 7.6606 3.30077 5.48398 5.48237ZM55.2239 4.76519C60 9.54125 60 16.8413 60 29.9946C60 43.1478 60 50.4479 55.2239 55.2239C50.4479 60 43.1369 60 29.9946 60C16.8522 60 9.54125 60 4.77607 55.2239C0 50.4479 0 43.1369 0 29.9946C0 16.8522 0 9.54125 4.77607 4.77607C9.54125 0 16.8413 0 29.9946 0C43.1478 0 50.4479 0 55.2239 4.76519Z" fill="black"/>
<path d="M28.7291 48.9567C26.6109 47.3221 25.0487 44.8835 24.5456 42.0431H17.7144V12.1646C21.3948 14.0136 24.0161 18.1135 24.3338 22.3474L25.3664 30.7348L24.8634 30.6544C23.7513 30.6544 22.7981 31.6995 22.7981 32.7446C22.7981 33.7093 23.5395 34.54 24.4927 34.7543L25.7371 35.0491C27.8024 31.11 28.9674 27.2512 28.9674 23.4461C28.9674 20.0161 28.5173 16.6129 28.4644 13.1293C28.4644 11.5751 29.0469 10.1548 30.0001 9.05615C30.9533 10.1816 31.5358 11.5751 31.5358 13.1293C31.5358 16.6129 31.0327 20.0429 31.0327 23.4461C31.0327 27.2244 32.1977 31.11 34.263 35.0491L35.5075 34.7543C36.4607 34.54 37.202 33.7093 37.202 32.7446C37.202 31.6995 36.2488 30.6544 35.1368 30.6544L34.6337 30.7348L35.6663 22.3474C36.1694 18.1135 38.6054 14.0136 42.2858 12.1646V42.0431H35.4545C34.9514 44.8568 33.4687 47.4025 31.271 48.9567C30.7679 49.3318 30.3178 49.7874 30.0265 50.3769C29.6823 49.7606 29.2322 49.3318 28.7291 48.9567ZM20.9446 31.7263C21.2359 30.6008 22.0567 29.6361 23.0629 29.0466L22.2421 22.133C21.9508 19.9893 21.077 18.0599 19.7531 16.4789V31.6995H20.9446V31.7263ZM24.4132 39.9529C24.4132 38.9079 24.5721 37.9432 24.7839 36.9785L23.8307 36.7641C22.4274 36.3086 21.3418 35.2099 20.9711 33.7897H19.8061V39.9529H24.4132ZM28.941 39.9529C28.941 38.6935 27.9878 37.568 26.7433 37.434C26.5315 38.2379 26.3726 39.0686 26.3726 39.9529H28.941ZM28.941 42.0431H26.6639C27.0346 43.6777 27.8289 45.1515 28.941 46.4378V42.0431ZM32.1712 35.585C31.2975 33.9504 30.4767 32.2354 29.9736 30.4668C29.4705 32.2622 28.6497 33.9504 27.7759 35.585C28.6497 35.7994 29.3911 36.3889 29.9736 37.0589C30.5561 36.3889 31.2975 35.7994 32.1712 35.585ZM33.5746 39.9529C33.5746 39.0686 33.4157 38.2379 33.2039 37.434C31.9594 37.5948 31.0062 38.6935 31.0062 39.9529H33.5746ZM33.2833 42.0431H31.0062V46.4378C32.1183 45.1515 32.9126 43.6777 33.2833 42.0431ZM40.194 39.9529V33.7897H39.029C38.6583 35.2099 37.5727 36.3086 36.1694 36.7641L35.2162 36.9785C35.428 37.9432 35.5869 38.9079 35.5869 39.9529H40.194ZM40.194 31.7263V16.5057C38.8701 18.0599 37.9169 19.9893 37.7051 22.1598L36.8843 29.0734C37.9169 29.6629 38.7113 30.6276 39.0025 31.7531H40.194V31.7263Z" fill="black"/>
</svg>
