<svg width="214" height="60" viewBox="0 0 214 60" fill="none" xmlns="http://www.w3.org/2000/svg">
<path fill-rule="evenodd" clip-rule="evenodd" d="M5.48398 5.48237L5.48237 5.48398C3.30093 7.66045 2.16541 10.4455 1.5864 14.3891C1.00244 18.3664 1 23.3949 1 29.9946C1 36.5942 1.00244 41.6227 1.58641 45.6014C2.16542 49.5463 3.30102 52.3347 5.48317 54.5168L5.48398 54.5176C7.66045 56.6991 10.4455 57.8346 14.3891 58.4136C18.3664 58.9976 23.3949 59 29.9946 59C36.5942 59 41.6227 58.9976 45.6014 58.4136C49.5463 57.8346 52.3347 56.699 54.5168 54.5168C56.6991 52.3345 57.8346 49.5487 58.4136 45.6054C58.9976 41.6281 59 36.5997 59 29.9946C59 23.3894 58.9976 18.361 58.4136 14.3837C57.8346 10.4404 56.6991 7.6546 54.5168 5.47229C52.3347 3.29558 49.549 2.16273 45.6057 1.58509C41.6283 1.00243 36.5996 1 29.9946 1C23.3894 1 18.361 1.00245 14.3851 1.58639C10.4431 2.16536 7.6606 3.30077 5.48398 5.48237ZM55.2239 4.76519C60 9.54125 60 16.8413 60 29.9946C60 43.1478 60 50.4479 55.2239 55.2239C50.4479 60 43.1369 60 29.9946 60C16.8522 60 9.54125 60 4.77607 55.2239C0 50.4479 0 43.1369 0 29.9946C0 16.8522 0 9.54125 4.77607 4.77607C9.54125 0 16.8413 0 29.9946 0C43.1478 0 50.4479 0 55.2239 4.76519Z" fill="black"/>
<path d="M28.7291 48.9569C26.6109 47.3223 25.0487 44.8838 24.5456 42.0433H17.7144V12.1648C21.3948 14.0138 24.0161 18.1137 24.3338 22.3476L25.3664 30.7351L24.8634 30.6547C23.7513 30.6547 22.7981 31.6997 22.7981 32.7448C22.7981 33.7095 23.5395 34.5402 24.4927 34.7546L25.7371 35.0493C27.8024 31.1102 28.9674 27.2515 28.9674 23.4463C28.9674 20.0163 28.5173 16.6131 28.4644 13.1295C28.4644 11.5753 29.0469 10.1551 30.0001 9.0564C30.9533 10.1819 31.5358 11.5753 31.5358 13.1295C31.5358 16.6131 31.0327 20.0431 31.0327 23.4463C31.0327 27.2247 32.1977 31.1102 34.263 35.0493L35.5075 34.7546C36.4607 34.5402 37.202 33.7095 37.202 32.7448C37.202 31.6997 36.2488 30.6547 35.1368 30.6547L34.6337 30.7351L35.6663 22.3476C36.1694 18.1137 38.6054 14.0138 42.2858 12.1648V42.0433H35.4545C34.9514 44.857 33.4687 47.4027 31.271 48.9569C30.7679 49.3321 30.3178 49.7876 30.0265 50.3772C29.6823 49.7608 29.2322 49.3321 28.7291 48.9569ZM20.9446 31.7265C21.2359 30.6011 22.0567 29.6364 23.0629 29.0469L22.2421 22.1333C21.9508 19.9895 21.077 18.0601 19.7531 16.4791V31.6997H20.9446V31.7265ZM24.4132 39.9532C24.4132 38.9081 24.5721 37.9434 24.7839 36.9787L23.8307 36.7643C22.4274 36.3088 21.3418 35.2101 20.9711 33.7899H19.8061V39.9532H24.4132ZM28.941 39.9532C28.941 38.6937 27.9878 37.5683 26.7433 37.4343C26.5315 38.2382 26.3726 39.0689 26.3726 39.9532H28.941ZM28.941 42.0433H26.6639C27.0345 43.6779 27.8289 45.1518 28.941 46.438V42.0433ZM32.1712 35.5853C31.2975 33.9507 30.4767 32.2357 29.9736 30.4671C29.4705 32.2625 28.6497 33.9507 27.7759 35.5853C28.6497 35.7997 29.3911 36.3892 29.9736 37.0591C30.5561 36.3892 31.2975 35.7997 32.1712 35.5853ZM33.5746 39.9532C33.5746 39.0689 33.4157 38.2382 33.2039 37.4343C31.9594 37.595 31.0062 38.6937 31.0062 39.9532H33.5746ZM33.2833 42.0433H31.0062V46.438C32.1183 45.1518 32.9126 43.6779 33.2833 42.0433ZM40.194 39.9532V33.7899H39.029C38.6583 35.2101 37.5727 36.3088 36.1694 36.7643L35.2162 36.9787C35.428 37.9434 35.5869 38.9081 35.5869 39.9532H40.194ZM40.194 31.7265V16.5059C38.8701 18.0601 37.9169 19.9895 37.7051 22.1601L36.8843 29.0737C37.9169 29.6632 38.7113 30.6279 39.0025 31.7533H40.194V31.7265Z" fill="black"/>
<path d="M78.9062 4.60938H74.5586V15H76.2812V11.0352H78.9062C81.1758 11.0352 82.5977 9.80469 82.5977 7.80859C82.5977 5.83984 81.1758 4.60938 78.9062 4.60938ZM78.6875 9.55859H76.2812V6.11328H78.6875C80.1094 6.11328 80.8477 6.6875 80.8477 7.83594C80.8477 8.95703 80.1094 9.55859 78.6875 9.55859Z" fill="black"/>
<path d="M85.168 11.418H91.4844C91.5391 11.2266 91.5391 11.0898 91.5391 10.8984C91.5391 8.32812 89.9805 6.66016 87.5742 6.66016C85.168 6.66016 83.5273 8.38281 83.5273 10.8984C83.5273 13.332 85.0039 15.1367 87.7109 15.1367C89.4336 15.1367 90.582 14.4805 91.2656 13.6602L90.1445 12.6758C89.6797 13.2773 88.9141 13.7422 87.7109 13.7422C86.2617 13.7422 85.3594 12.8398 85.168 11.418ZM87.5742 8.02734C88.8047 8.02734 89.6523 8.82031 89.8711 10.1602H85.1953C85.4414 8.84766 86.2891 8.02734 87.5742 8.02734Z" fill="black"/>
<path d="M96.9531 13.7422C95.5859 13.7422 94.6836 12.8672 94.4922 11.4727H97.9922V10.1602H94.5195C94.7656 8.875 95.6406 8.05469 96.9531 8.05469C97.9922 8.05469 98.7578 8.62891 99.1406 9.58594L100.645 9.06641C100.152 7.53516 98.7305 6.66016 96.9531 6.66016C94.5195 6.66016 92.8516 8.38281 92.8516 10.8984C92.8516 13.4141 94.5195 15.1367 96.9531 15.1367C98.7305 15.1367 100.152 14.2617 100.645 12.7305L99.1406 12.2109C98.7578 13.168 97.9922 13.7422 96.9531 13.7422Z" fill="black"/>
<path d="M105.73 15.1367C107.48 15.1367 108.93 14.2344 109.395 12.6758L107.836 12.1836C107.48 13.1406 106.715 13.7422 105.73 13.7422C104.227 13.7422 103.297 12.6211 103.297 10.8984C103.297 9.17578 104.227 8.05469 105.73 8.05469C106.742 8.05469 107.48 8.65625 107.836 9.61328L109.395 9.12109C108.93 7.5625 107.508 6.66016 105.73 6.66016C103.297 6.66016 101.629 8.38281 101.629 10.8984C101.629 13.4141 103.297 15.1367 105.73 15.1367Z" fill="black"/>
<path d="M117.516 6.79688H109.969V8.24609H112.922V15H114.562V8.24609H117.516V6.79688Z" fill="black"/>
<path d="M123.422 6.66016C122.246 6.66016 121.262 7.17969 120.605 8.08203L120.496 6.79688H119.074V17.7344H120.715V13.9062C121.344 14.6992 122.301 15.1367 123.422 15.1367C125.527 15.1367 127.004 13.4141 127.004 10.8984C127.004 8.32812 125.582 6.66016 123.422 6.66016ZM122.984 13.7422C121.535 13.7422 120.605 12.6211 120.605 10.8984C120.605 9.17578 121.535 8.05469 122.984 8.05469C124.434 8.05469 125.336 9.17578 125.336 10.8984C125.336 12.6211 124.434 13.7422 122.984 13.7422Z" fill="black"/>
<path d="M80.957 33.5781C80.6016 33.5781 80.4375 33.4141 80.4375 33.0586V29.3672C80.4375 27.6719 79.2344 26.6602 77.2656 26.6602C75.8438 26.6602 74.668 27.1523 73.7109 28.0547L74.7227 29.1211C75.3789 28.4375 76.2539 28.0273 77.1836 28.0273C78.2227 28.0273 78.9062 28.4648 78.9062 29.1211C78.9062 29.75 78.3047 29.8594 77.0742 30.0234C75.4883 30.2695 73.5469 30.707 73.5469 32.7305C73.5469 34.1523 74.6133 35.1367 76.2266 35.1367C77.4297 35.1367 78.5234 34.5898 79.0977 33.7422C79.207 34.6992 79.6719 35.0547 80.6836 35.0547C80.957 35.0547 81.1758 35.0273 81.2578 35V33.5781H80.957ZM76.5 33.7969C75.6523 33.7969 75.1602 33.3867 75.1602 32.6211C75.1602 31.5547 76.2266 31.3906 77.2656 31.2266C78.0586 31.0898 78.5508 31.0078 78.8516 30.8164V31.8828C78.8516 32.9219 77.7578 33.7969 76.5 33.7969Z" fill="black"/>
<path d="M90.1992 33.5508V26.7969H83.4727V30.2148C83.4727 31.8281 83.3906 32.8945 83.2266 33.5508H82.2695V36.9141H83.8281V35H89.7344V36.9141H91.293V33.5508H90.1992ZM84.8125 33.5508C84.9766 32.7305 85.0586 31.6094 85.0586 30.2969V28.2461H88.5859V33.5508H84.8125Z" fill="black"/>
<path d="M102.777 26.7969H100.289L97.9648 33.168L95.6133 26.7969H93.0977V35H94.6836V28.5195L97.0625 35H98.8125L101.191 28.5195V35H102.777V26.7969Z" fill="black"/>
<path d="M105.402 25.6484H107.207V24.0078H105.402V25.6484ZM105.484 35H107.125V26.7969H105.484V35Z" fill="black"/>
<path d="M115.465 26.7969V30.0781H111.473V26.7969H109.832V35H111.473V31.5547H115.465V35H117.105V26.7969H115.465Z" fill="black"/>
<path d="M119.73 25.6484H121.535V24.0078H119.73V25.6484ZM119.812 35H121.453V26.7969H119.812V35Z" fill="black"/>
<path d="M127.66 35.1367C129.41 35.1367 130.859 34.2344 131.324 32.6758L129.766 32.1836C129.41 33.1406 128.645 33.7422 127.66 33.7422C126.156 33.7422 125.227 32.6211 125.227 30.8984C125.227 29.1758 126.156 28.0547 127.66 28.0547C128.672 28.0547 129.41 28.6562 129.766 29.6133L131.324 29.1211C130.859 27.5625 129.438 26.6602 127.66 26.6602C125.227 26.6602 123.559 28.3828 123.559 30.8984C123.559 33.4141 125.227 35.1367 127.66 35.1367Z" fill="black"/>
<path d="M139.445 26.7969H131.898V28.2461H134.852V35H136.492V28.2461H139.445V26.7969Z" fill="black"/>
<path d="M145.352 26.6602C144.176 26.6602 143.191 27.1797 142.535 28.082L142.426 26.7969H141.004V37.7344H142.645V33.9062C143.273 34.6992 144.23 35.1367 145.352 35.1367C147.457 35.1367 148.934 33.4141 148.934 30.8984C148.934 28.3281 147.512 26.6602 145.352 26.6602ZM144.914 33.7422C143.465 33.7422 142.535 32.6211 142.535 30.8984C142.535 29.1758 143.465 28.0547 144.914 28.0547C146.363 28.0547 147.266 29.1758 147.266 30.8984C147.266 32.6211 146.363 33.7422 144.914 33.7422Z" fill="black"/>
<path d="M157.41 33.5781C157.055 33.5781 156.891 33.4141 156.891 33.0586V29.3672C156.891 27.6719 155.688 26.6602 153.719 26.6602C152.297 26.6602 151.121 27.1523 150.164 28.0547L151.176 29.1211C151.832 28.4375 152.707 28.0273 153.637 28.0273C154.676 28.0273 155.359 28.4648 155.359 29.1211C155.359 29.75 154.758 29.8594 153.527 30.0234C151.941 30.2695 150 30.707 150 32.7305C150 34.1523 151.066 35.1367 152.68 35.1367C153.883 35.1367 154.977 34.5898 155.551 33.7422C155.66 34.6992 156.125 35.0547 157.137 35.0547C157.41 35.0547 157.629 35.0273 157.711 35V33.5781H157.41ZM152.953 33.7969C152.105 33.7969 151.613 33.3867 151.613 32.6211C151.613 31.5547 152.68 31.3906 153.719 31.2266C154.512 31.0898 155.004 31.0078 155.305 30.8164V31.8828C155.305 32.9219 154.211 33.7969 152.953 33.7969Z" fill="black"/>
<path d="M165.723 26.7969H158.176V28.2461H161.129V35H162.77V28.2461H165.723V26.7969Z" fill="black"/>
<path d="M172.887 26.7969L168.895 32.7031V26.7969H167.281V35H168.977L172.969 29.0391V35H174.582V26.7969H172.887Z" fill="black"/>
<path d="M182.566 30.7891C183.305 30.4609 183.742 29.832 183.742 28.9297C183.742 27.4531 182.621 26.7969 180.816 26.7969H177.152V35H181.117C182.895 35 183.961 34.2344 183.961 32.7578C183.961 31.7734 183.469 31.1172 182.566 30.7891ZM178.738 28.1094H180.898C181.664 28.1094 182.129 28.4648 182.129 29.1211C182.129 29.8867 181.746 30.1875 180.816 30.1875H178.738V28.1094ZM180.953 33.6875H178.738V31.418H180.844C181.773 31.418 182.32 31.8555 182.32 32.5664C182.32 33.2773 181.828 33.6875 180.953 33.6875Z" fill="black"/>
<path d="M191.617 26.7969V30.0781H187.625V26.7969H185.984V35H187.625V31.5547H191.617V35H193.258V26.7969H191.617Z" fill="black"/>
<path d="M201.434 26.7969L197.441 32.7031V26.7969H195.828V35H197.523L201.516 29.0391V35H203.129V26.7969H201.434Z" fill="black"/>
<path d="M213.109 35L209.992 30.8164L212.973 26.7969H211.113L208.98 29.6953L206.875 26.7969H204.934L207.914 30.8164L204.77 35H206.684L208.926 31.9375L211.141 35H213.109Z" fill="black"/>
<path d="M81.5586 46.7969H74.2852V55H75.9258V48.2461H79.918V55H81.5586V46.7969Z" fill="black"/>
<path d="M87.6836 55.1367C90.1445 55.1367 91.8398 53.4141 91.8398 50.8984C91.8398 48.3281 90.1992 46.6602 87.6836 46.6602C85.2227 46.6602 83.5273 48.3828 83.5273 50.8984C83.5273 53.4688 85.168 55.1367 87.6836 55.1367ZM87.6836 53.7422C86.1797 53.7422 85.1953 52.6211 85.1953 50.8984C85.1953 49.1758 86.1797 48.0547 87.6836 48.0547C89.1875 48.0547 90.1719 49.1758 90.1719 50.8984C90.1719 52.6211 89.1875 53.7422 87.6836 53.7422Z" fill="black"/>
<path d="M97.3086 55.1367C99.0586 55.1367 100.508 54.2344 100.973 52.6758L99.4141 52.1836C99.0586 53.1406 98.293 53.7422 97.3086 53.7422C95.8047 53.7422 94.875 52.6211 94.875 50.8984C94.875 49.1758 95.8047 48.0547 97.3086 48.0547C98.3203 48.0547 99.0586 48.6562 99.4141 49.6133L100.973 49.1211C100.508 47.5625 99.0859 46.6602 97.3086 46.6602C94.875 46.6602 93.207 48.3828 93.207 50.8984C93.207 53.4141 94.875 55.1367 97.3086 55.1367Z" fill="black"/>
<path d="M109.805 46.7969H103.16V51.0352C103.16 53.3047 102.941 53.4961 102.23 53.4961H101.793V55C101.984 55.0273 102.258 55.0547 102.559 55.0547C104.145 55.0547 104.773 54.1797 104.773 51.1992V48.2461H108.164V55H109.805V46.7969Z" fill="black"/>
<path d="M118.117 46.7969L116.012 53.5781H115.355L112.977 46.7969H111.172L113.824 53.5781H112.648C112.102 54.125 111.828 54.7539 111.828 55.4922C111.828 56.9414 112.758 57.8711 114.125 57.8711C115.52 57.8711 116.449 56.9688 117.133 54.8906L119.867 46.7969H118.117ZM114.18 56.5039C113.633 56.5039 113.25 56.1211 113.25 55.5469C113.25 55.3008 113.305 55.082 113.441 54.8906H115.492L115.328 55.3828C115.082 56.0938 114.672 56.5039 114.18 56.5039Z" fill="black"/>
<path d="M127.25 46.7969H121.344V55H122.984V48.3008H127.25V46.7969Z" fill="black"/>
</svg>
